<svg width="48" height="48" viewBox="0 0 48 48" fill="none" xmlns="http://www.w3.org/2000/svg">
<rect width="48" height="48" rx="24" fill="white"/>
<path d="M37.3307 26.6667H26.6641V37.3333H37.3307V26.6667ZM16.6641 10.6667L22.6641 21.3333H10.6641L16.6641 10.6667ZM31.9974 21.3333C33.4119 21.3333 34.7684 20.7714 35.7686 19.7712C36.7688 18.771 37.3307 17.4145 37.3307 16C37.3307 14.5855 36.7688 13.229 35.7686 12.2288C34.7684 11.2286 33.4119 10.6667 31.9974 10.6667C30.5829 10.6667 29.2264 11.2286 28.2262 12.2288C27.226 13.229 26.6641 14.5855 26.6641 16C26.6641 17.4145 27.226 18.771 28.2262 19.7712C29.2264 20.7714 30.5829 21.3333 31.9974 21.3333Z" fill="black" stroke="black" stroke-width="2" stroke-linejoin="round"/>
<path d="M10.6641 26.6667L21.3307 37.3333ZM21.3307 26.6667L10.6641 37.3333Z" fill="black"/>
<path d="M10.6641 26.6667L21.3307 37.3333M21.3307 26.6667L10.6641 37.3333" stroke="black" stroke-width="3" stroke-linecap="round" stroke-linejoin="round"/>
</svg>
